<?xml version="1.0" encoding="UTF-8"?>
<svg id="Layer_1" xmlns="http://www.w3.org/2000/svg" version="1.1" viewBox="0 0 2064 500">
  <!-- Generator: Adobe Illustrator 29.3.1, SVG Export Plug-In . SVG Version: 2.1.0 Build 151)  -->
  <defs>
    <style>
      .st0 {
        fill: #fff;
      }

      .st1 {
        fill: #fdc10f;
      }
    </style>
  </defs>
  <g>
    <path class="st0" d="M655,222c-11.5,24.5-19.5,50.7-20,78l62.5-78h43.5l-57.4,69c-1,1.3-1.7,2.7-1.5,4.4s7.2,15.1,8.8,18.2c15.1,28.7,34.5,55,53.2,81.3h-50c-13.9-22-26.5-44.8-38.5-68l-16.4,23.4c3.4,15.5,9.3,30.2,15.9,44.5h-41c-22.6-55.6-22.5-117.4,0-173h41Z"/>
    <path class="st0" d="M588,395h-46.5c-12.7-18.4-20.3-40.1-28-61-2.3-2.7-17.3,1.5-21.5,0l10,61h-38c-13.3-56.5-14.4-116.8.6-173.1,33.7,2.6,94.8-12.3,104.1,33.9,3.8,18.8-1.4,41.7-14.2,56.2s-9.5,8.2-9.5,9.4l16.8,33.2,26.2,40.3ZM491,303c18.4.4,38.8-3.9,41-25.5,2.8-27.2-16.2-24.4-37-24.5l-4,50Z"/>
  </g>
  <g>
    <path class="st0" d="M1360.5,222c10,.9,27.4,6.5,35.4,12.6,28.7,21.6,26,73.8-6,91,11.2,21.9,20.5,45.1,25.1,69.4h-43c-2.5-20.6-5.9-41.1-12.1-60.9h-19.8c-1.3.8-1.8,19.9-2.2,23.4-1.3,12.5-3.7,25-5,37.5h-37c1-11.2,3.7-22.3,5-33.5,5.2-46.4,2.7-93.5-5-139.5,20.8,1.4,44-1.9,64.5,0ZM1340,302h23.5c.8,0,7-3.1,8-4,7.4-6.5,7.2-25.4,2.3-33.3s-14.6-11.7-21.3-11.7h-15.5l3,49Z"/>
    <path class="st0" d="M1562,395h-37l-7.9-38.6-43.9-.3-8.1,38.9h-36c12.6-56.7,22.4-114.6,21-173h56.5c15.5,23.6,25.4,52.2,33.8,79.2,9.5,30.6,17,62,21.7,93.8ZM1478,323h31c-6-23.9-14.1-47.3-23.5-70l-7.5,70Z"/>
    <path class="st0" d="M1271,222c2.9,10.4,4.9,21.1,5,32h-58l4,38h40c1.4,10.7,1,21.3,0,32h-38.5c-.6,0-1.5,1.7-1.5,2.5l-3,36.5h60c.1,10.8-1.8,21.7-5,32h-100c1.6-6.3,3.4-12.5,4.7-18.8,10.5-50.9,8.9-104-4.7-154.2h97Z"/>
    <path class="st0" d="M1024.7,222.3c6,10.1,9.3,22,10.3,33.7-12.6-1.5-48.9-7.7-57.5,2s-1.2,15.3,4.5,20.6c22.6,20.7,57.3,26.4,59,65.9,2.6,60.1-75.9,60.6-116,45.5,6.1-10.6,14-20.2,18.1-31.9,8.3.9,16.1,3.9,24.4,4.9s14.2,1.3,20.9-.1c17.3-3.8,17.9-17.9,6.1-28.9-23.2-21.8-58.6-28-58.6-69.5,0-47.3,53.9-50.9,88.8-42.2Z"/>
    <path class="st0" d="M1153,222c3,10.4,6.7,20.9,6,32h-53l5,49h38c.8,10.5,1.2,21.4-1.9,31.6l-37.6,1.4c-2.4,20-5.4,40.6-12.9,59.1h-38.5c20.6-55.9,19.7-117,0-173h95Z"/>
  </g>
  <circle class="st1" cx="904.8" cy="176.8" r="35.2"/>
  <g>
    <path class="st0" d="M1857,318l-.5,10c11.5-15.3,41.4-18.3,49,2,8.8-16.8,41.9-20.8,50.2-2.3s-4.7,53-4.7,72.2h-26l7-53.5c-.8-10.9-13.9-10.1-20.5-4.5-9.9,8.4-8.9,45.1-12.5,58h-25c-.2-15.4,5.1-31.5,6-46.5.6-10.3-1.8-17.8-13.8-14.8s-12.3,14-14,24-2.7,25.1-5.1,37.4h-25l11-82h24Z"/>
    <path class="st0" d="M1763.8,316.3c74.2-8.9,58.9,91.7-8.3,85.7-53-4.7-41.3-79.8,8.3-85.7ZM1765.8,338.3c-22.9,3.3-28.2,41-2.3,41.5,28.6.6,34.4-46.1,2.3-41.5Z"/>
    <path class="st0" d="M1697.9,374.1c.9,3.6,12.2,14.1,12.2,16.4,0,5.4-20,10.9-24.7,11.4-69.6,6.9-54.8-96.5,15.7-85.4s18,6.1,18,10-16.4,17.2-17.7,17.4-6.7-6.8-15.6-5.7c-24.7,3-28.9,44-.3,40.7,5.7-.7,7.5-4.4,12.4-4.9Z"/>
  </g>
  <circle class="st1" cx="1603.2" cy="385.4" r="15.7"/>
  <circle class="st1" cx="828.3" cy="308.5" r="89.3"/>
  <g>
    <path class="st0" d="M131,222c-1.1,39.7,1.1,79.5,10.5,118,6.4-40.1,14.9-80.2,30-118h46.5c-1.5,39.2,4.6,78.3,14.5,116,1.6,0,2.3-17.8,2.6-20.4,3.2-25.2,8.4-52.4,15.2-76.8,1.7-6.2,3-13.3,6.2-18.8h35.5c-3.1,15.2-8,29.9-11.5,45-9.7,42-15,85-17.5,128h-49c-14.2-36.5-22.7-75.1-27.5-114-9.6,37.1-16.7,75.5-16.5,114h-49c-13.8-36.2-22.5-74.8-26-113.5-1.8-19.8-2.1-39.7,0-59.5h36Z"/>
    <circle class="st1" cx="378.9" cy="177.1" r="84"/>
  </g>
</svg>